<svg xmlns="http://www.w3.org/2000/svg" viewBox="0 0 24 24" fill="none" stroke="currentColor" stroke-width="2" stroke-linecap="round" stroke-linejoin="round" class="feather feather-cloud-sun">
    <path d="M12 2.5A9.5 9.5 0 0 1 21.5 12A9.5 9.5 0 0 1 12 21.5A9.5 9.5 0 0 1 2.5 12A9.5 9.5 0 0 1 12 2.5z" fill="#4facfe"/>
    <path d="M12 4.5a7.5 7.5 0 0 1 7.5 7.5a7.5 7.5 0 0 1-7.5 7.5a7.5 7.5 0 0 1-7.5-7.5a7.5 7.5 0 0 1 7.5-7.5z" fill="#fff"/>
    <path d="M18 10.5a6 6 0 1 0-12 0c0 3.31 2.69 6 6 6s6-2.69 6-6z" fill="#f0f0f0"/>
    <path d="M12 6.5a4 4 0 1 0 0 8a4 4 0 0 0 0-8z" fill="#ffc107"/>
    <path d="M12 2v2m-6.36 1.64l1.41 1.41M2 12h2m1.64 6.36l1.41-1.41M12 20v2m6.36-1.64l-1.41-1.41M22 12h-2m-1.64-6.36l-1.41 1.41" stroke="#ffc107"/>
</svg>
